<?xml version="1.0" encoding="UTF-8" standalone="no"?>
<!-- Created with Inkscape (http://www.inkscape.org/) -->

<svg
   xmlns:dc="http://purl.org/dc/elements/1.1/"
   xmlns:cc="http://creativecommons.org/ns#"
   xmlns:rdf="http://www.w3.org/1999/02/22-rdf-syntax-ns#"
   xmlns:svg="http://www.w3.org/2000/svg"
   xmlns="http://www.w3.org/2000/svg"
   xmlns:xlink="http://www.w3.org/1999/xlink"
   xmlns:sodipodi="http://sodipodi.sourceforge.net/DTD/sodipodi-0.dtd"
   xmlns:inkscape="http://www.inkscape.org/namespaces/inkscape"
   width="218"
   height="90"
   viewBox="0 0 218.00001 89.999999"
   id="svg4734"
   version="1.1"
   inkscape:version="0.91 r13725"
   sodipodi:docname="perfectium.svg">
  <defs
     id="defs4736">
    <linearGradient
       inkscape:collect="always"
       xlink:href="#linearGradient5468"
       id="linearGradient5173-6-2"
       x1="-2280"
       y1="557.20013"
       x2="-2280"
       y2="567.09961"
       gradientUnits="userSpaceOnUse"
       gradientTransform="matrix(2,0,0,2,3593.6378,296.08294)" />
    <linearGradient
       inkscape:collect="always"
       id="linearGradient5468">
      <stop
         style="stop-color:#b44ffb;stop-opacity:1"
         offset="0"
         id="stop5470" />
      <stop
         style="stop-color:#9a2ef6;stop-opacity:1"
         offset="1"
         id="stop5472" />
    </linearGradient>
    <linearGradient
       inkscape:collect="always"
       xlink:href="#linearGradient5158"
       id="linearGradient5164-9-6"
       x1="2284"
       y1="-569.92804"
       x2="2284"
       y2="-562.85699"
       gradientUnits="userSpaceOnUse"
       gradientTransform="matrix(2,0,0,2,-3597.6379,-296.08294)" />
    <linearGradient
       inkscape:collect="always"
       id="linearGradient5158">
      <stop
         style="stop-color:#2ea2f6;stop-opacity:1"
         offset="0"
         id="stop5160" />
      <stop
         style="stop-color:#4cb9fa;stop-opacity:1"
         offset="1"
         id="stop5162" />
    </linearGradient>
  </defs>
  <sodipodi:namedview
     id="base"
     pagecolor="#ffffff"
     bordercolor="#666666"
     borderopacity="1.0"
     inkscape:pageopacity="0.0"
     inkscape:pageshadow="2"
     inkscape:zoom="3.959798"
     inkscape:cx="103.41194"
     inkscape:cy="25.884884"
     inkscape:document-units="px"
     inkscape:current-layer="layer1"
     showgrid="false"
     units="px"
     inkscape:window-width="1920"
     inkscape:window-height="1051"
     inkscape:window-x="329"
     inkscape:window-y="1431"
     inkscape:window-maximized="1" />
  <metadata
     id="metadata4739">
    <rdf:RDF>
      <cc:Work
         rdf:about="">
        <dc:format>image/svg+xml</dc:format>
        <dc:type
           rdf:resource="http://purl.org/dc/dcmitype/StillImage" />
        <dc:title></dc:title>
      </cc:Work>
    </rdf:RDF>
  </metadata>
  <g
     inkscape:label="Layer 1"
     inkscape:groupmode="layer"
     id="layer1"
     transform="translate(0,-962.36225)">
    <rect
       style="opacity:1;fill:#e4e5eb;fill-opacity:1;stroke:none;stroke-width:4;stroke-linecap:butt;stroke-linejoin:miter;stroke-miterlimit:4;stroke-dasharray:none;stroke-opacity:1"
       id="rect4226-9"
       width="218"
       height="90"
       x="0"
       y="962.36224" />
    <g
       transform="translate(-12.341201,579.23636)"
       style="font-style:normal;font-weight:normal;font-size:40px;line-height:125%;font-family:sans-serif;letter-spacing:0px;word-spacing:0px;fill:#20222b;fill-opacity:1;stroke:none;stroke-width:1px;stroke-linecap:butt;stroke-linejoin:miter;stroke-opacity:1"
       id="flowRoot3871-1-8-4">
      <path
         d="m 98.2075,438.05388 -1.7325,0 q -0.4675,0 -0.4675,-0.4675 l 0,-16.7475 q 0,-0.4675 0.4675,-0.4675 l 6.545,0 q 2.0075,0 3.135,1.1275 1.1275,1.1 1.1275,3.135 l 0,2.86 q 0,2.0075 -1.1275,3.135 -1.1275,1.1275 -3.135,1.1275 l -4.015,0 q -0.33,0 -0.33,0.275 l 0,5.555 q 0,0.4675 -0.4675,0.4675 z m 0.77,-8.6625 3.6575,0 q 1.9525,0 1.9525,-2.035 l 0,-2.6125 q 0,-2.035 -1.9525,-2.035 l -3.6575,0 q -0.3025,0 -0.3025,0.275 l 0,6.1325 q 0,0.275 0.3025,0.275 z"
         style="font-style:normal;font-variant:normal;font-weight:600;font-stretch:normal;font-size:27.5px;font-family:Rajdhani;-inkscape-font-specification:'Rajdhani Semi-Bold';text-align:start;letter-spacing:-0.40000001px;text-anchor:start;fill:#20222b;fill-opacity:1"
         id="path5323" />
      <path
         d="m 119.76195,438.05388 -5.94,0 q -2.035,0 -3.1625,-1.1275 -1.1,-1.1275 -1.1,-3.135 l 0,-5.5 q 0,-2.035 1.1,-3.135 1.1275,-1.1275 3.1625,-1.1275 l 2.255,0 q 2.035,0 3.1625,1.1275 1.1275,1.1 1.1275,3.135 l 0,3.4925 q 0,0.495 -0.495,0.495 l -7.37,0 q -0.3025,0 -0.3025,0.275 l 0,1.1825 q 0,2.0075 2.0075,2.0075 l 5.555,0 q 0.495,0 0.495,0.495 l 0,1.375 q 0,0.44 -0.495,0.44 z m -7.26,-7.645 4.9225,0 q 0.275,0 0.275,-0.275 l 0,-1.76 q 0,-1.045 -0.4675,-1.5125 -0.4675,-0.495 -1.5125,-0.495 l -1.5125,0 q -1.045,0 -1.5125,0.495 -0.4675,0.4675 -0.4675,1.5125 l 0,1.76 q 0,0.275 0.275,0.275 z"
         style="font-style:normal;font-variant:normal;font-weight:600;font-stretch:normal;font-size:27.5px;font-family:Rajdhani;-inkscape-font-specification:'Rajdhani Semi-Bold';text-align:start;letter-spacing:-0.40000001px;text-anchor:start;fill:#20222b;fill-opacity:1"
         id="path5325" />
      <path
         d="m 125.16961,438.05388 -1.7325,0 q -0.4675,0 -0.4675,-0.4675 l 0,-13.09 q 0,-0.4675 0.4675,-0.4675 l 1.7325,0 q 0.4675,0 0.4675,0.4675 l 0,1.045 0.11,0 q 0.275,-0.6875 1.045,-1.1 0.7975,-0.4125 1.76,-0.4125 l 1.0175,0 q 0.4675,0 0.4675,0.4675 l 0,1.43 q 0,0.5225 -0.4675,0.44 l -1.65,0 q -2.2825,0 -2.2825,2.5025 l 0,8.7175 q 0,0.4675 -0.4675,0.4675 z"
         style="font-style:normal;font-variant:normal;font-weight:600;font-stretch:normal;font-size:27.5px;font-family:Rajdhani;-inkscape-font-specification:'Rajdhani Semi-Bold';text-align:start;letter-spacing:-0.40000001px;text-anchor:start;fill:#20222b;fill-opacity:1"
         id="path5327" />
      <path
         d="m 136.04289,424.02888 2.31,0 q 0.495,0 0.495,0.44 l 0,1.43 q 0,0.4675 -0.495,0.4675 l -2.31,0 q -0.275,0 -0.275,0.275 l 0,10.945 q 0,0.4675 -0.495,0.4675 l -1.7325,0 q -0.4675,0 -0.4675,-0.4675 l 0,-10.945 q 0,-0.275 -0.3025,-0.275 l -1.4575,0 q -0.4675,0 -0.4675,-0.4675 l 0,-1.43 q 0,-0.2475 0.0825,-0.33 0.11,-0.11 0.385,-0.11 l 1.4575,0 q 0.3025,0 0.3025,-0.275 l 0,-0.7975 q 0,-2.035 1.045,-3.135 1.045,-1.1 3.0525,-1.1 l 1.21,0 q 0.4675,0 0.4675,0.44 l 0,1.43 q 0,0.4675 -0.4675,0.4675 l -0.825,0 q -0.99,0 -1.4025,0.495 -0.385,0.4675 -0.385,1.54 l 0,0.66 q 0,0.275 0.275,0.275 z"
         style="font-style:normal;font-variant:normal;font-weight:600;font-stretch:normal;font-size:27.5px;font-family:Rajdhani;-inkscape-font-specification:'Rajdhani Semi-Bold';text-align:start;letter-spacing:-0.40000001px;text-anchor:start;fill:#20222b;fill-opacity:1"
         id="path5329" />
      <path
         d="m 150.57367,438.05388 -5.94,0 q -2.035,0 -3.1625,-1.1275 -1.1,-1.1275 -1.1,-3.135 l 0,-5.5 q 0,-2.035 1.1,-3.135 1.1275,-1.1275 3.1625,-1.1275 l 2.255,0 q 2.035,0 3.1625,1.1275 1.1275,1.1 1.1275,3.135 l 0,3.4925 q 0,0.495 -0.495,0.495 l -7.37,0 q -0.3025,0 -0.3025,0.275 l 0,1.1825 q 0,2.0075 2.0075,2.0075 l 5.555,0 q 0.495,0 0.495,0.495 l 0,1.375 q 0,0.44 -0.495,0.44 z m -7.26,-7.645 4.9225,0 q 0.275,0 0.275,-0.275 l 0,-1.76 q 0,-1.045 -0.4675,-1.5125 -0.4675,-0.495 -1.5125,-0.495 l -1.5125,0 q -1.045,0 -1.5125,0.495 -0.4675,0.4675 -0.4675,1.5125 l 0,1.76 q 0,0.275 0.275,0.275 z"
         style="font-style:normal;font-variant:normal;font-weight:600;font-stretch:normal;font-size:27.5px;font-family:Rajdhani;-inkscape-font-specification:'Rajdhani Semi-Bold';text-align:start;letter-spacing:-0.40000001px;text-anchor:start;fill:#20222b;fill-opacity:1"
         id="path5331" />
      <path
         d="m 162.30633,436.18388 0,1.43 q 0,0.44 -0.495,0.44 l -4.0425,0 q -2.035,0 -3.1625,-1.1275 -1.1,-1.1275 -1.1,-3.135 l 0,-5.5 q 0,-2.035 1.1,-3.135 1.1275,-1.1275 3.1625,-1.1275 l 4.0425,0 q 0.495,0 0.495,0.4675 l 0,1.43 q 0,0.44 -0.495,0.44 l -3.6575,0 q -1.98,0 -1.98,2.035 l 0,5.28 q 0,2.035 1.98,2.035 l 3.6575,0 q 0.495,0 0.495,0.4675 z"
         style="font-style:normal;font-variant:normal;font-weight:600;font-stretch:normal;font-size:27.5px;font-family:Rajdhani;-inkscape-font-specification:'Rajdhani Semi-Bold';text-align:start;letter-spacing:-0.40000001px;text-anchor:start;fill:#20222b;fill-opacity:1"
         id="path5333" />
      <path
         d="m 164.91199,426.36638 -1.32,0 q -0.275,0 -0.385,-0.0825 -0.0825,-0.11 -0.0825,-0.3575 l 0,-1.43 q 0,-0.4675 0.4675,-0.4675 l 1.32,0 q 0.275,0 0.275,-0.275 l 0,-2.475 q 0,-0.4675 0.495,-0.4675 l 1.7325,0 q 0.4675,0 0.4675,0.4675 l 0,2.475 q 0,0.275 0.3025,0.275 l 2.5575,0 q 0.495,0 0.495,0.4675 l 0,1.43 q 0,0.44 -0.495,0.44 l -2.5575,0 q -0.3025,0 -0.3025,0.275 l 0,7.0675 q 0,2.0075 2.0625,2.0075 l 1.0725,0 q 0.495,0 0.495,0.4675 l 0,1.43 q 0,0.44 -0.495,0.44 l -1.485,0 q -2.035,0 -3.19,-1.1 -1.155,-1.1 -1.155,-3.1075 l 0,-7.205 q 0,-0.275 -0.275,-0.275 z"
         style="font-style:normal;font-variant:normal;font-weight:600;font-stretch:normal;font-size:27.5px;font-family:Rajdhani;-inkscape-font-specification:'Rajdhani Semi-Bold';text-align:start;letter-spacing:-0.40000001px;text-anchor:start;fill:#20222b;fill-opacity:1"
         id="path5335" />
      <path
         d="m 173.90496,421.69138 0,-2.5025 q 0,-0.44 0.44,-0.44 l 1.7875,0 q 0.44,0 0.44,0.44 l 0,2.5025 q 0,0.4675 -0.44,0.4675 l -1.7875,0 q -0.44,0 -0.44,-0.4675 z m 0,15.895 0,-13.09 q 0,-0.4675 0.44,-0.4675 l 1.76,0 q 0.4675,0 0.4675,0.4675 l 0,13.09 q 0,0.275 -0.11,0.385 -0.0825,0.0825 -0.33,0.0825 l -1.76,0 q -0.4675,0 -0.4675,-0.4675 z"
         style="font-style:normal;font-variant:normal;font-weight:600;font-stretch:normal;font-size:27.5px;font-family:Rajdhani;-inkscape-font-specification:'Rajdhani Semi-Bold';text-align:start;letter-spacing:-0.40000001px;text-anchor:start;fill:#20222b;fill-opacity:1"
         id="path5337" />
      <path
         d="m 184.95657,438.05388 -1.2375,0 q -1.98,0 -3.0525,-1.1 -1.045,-1.1275 -1.045,-3.1625 l 0,-9.295 q 0,-0.4675 0.4675,-0.4675 l 1.7325,0 q 0.4675,0 0.4675,0.4675 l 0,9.185 q 0,2.035 1.98,2.035 l 1.32,0 q 2.255,0 2.255,-2.3375 l 0,-8.8825 q 0,-0.4675 0.4675,-0.4675 l 1.7325,0 q 0.495,0 0.495,0.4675 l 0,13.09 q 0,0.4675 -0.495,0.4675 l -1.7325,0 q -0.4675,0 -0.4675,-0.4675 l 0,-0.99 -0.11,0 q -0.66,1.4575 -2.7775,1.4575 z"
         style="font-style:normal;font-variant:normal;font-weight:600;font-stretch:normal;font-size:27.5px;font-family:Rajdhani;-inkscape-font-specification:'Rajdhani Semi-Bold';text-align:start;letter-spacing:-0.40000001px;text-anchor:start;fill:#20222b;fill-opacity:1"
         id="path5339" />
      <path
         d="m 195.79246,438.05388 -1.7325,0 q -0.4675,0 -0.4675,-0.4675 l 0,-13.09 q 0,-0.4675 0.4675,-0.4675 l 1.7325,0 q 0.4675,0 0.4675,0.4675 l 0,0.99 0.11,0 q 0.7975,-1.4575 2.915,-1.4575 l 0.9075,0 q 2.3925,0 3.41,1.815 0.44,-0.88 1.3475,-1.3475 0.9075,-0.4675 1.9525,-0.4675 l 0.88,0 q 2.0075,0 3.0525,1.1275 1.0725,1.1 1.0725,3.135 l 0,9.295 q 0,0.4675 -0.4675,0.4675 l -1.76,0 q -0.4675,0 -0.4675,-0.4675 l 0,-9.185 q 0,-2.035 -1.98,-2.035 l -0.7975,0 q -2.2825,0 -2.2825,2.3925 l 0,8.8275 q 0,0.4675 -0.495,0.4675 l -1.7325,0 q -0.4675,0 -0.4675,-0.4675 l 0,-9.185 q 0,-2.035 -1.98,-2.035 l -0.9625,0 q -2.255,0 -2.255,2.3375 l 0,8.8825 q 0,0.4675 -0.4675,0.4675 z"
         style="font-style:normal;font-variant:normal;font-weight:600;font-stretch:normal;font-size:27.5px;font-family:Rajdhani;-inkscape-font-specification:'Rajdhani Semi-Bold';text-align:start;letter-spacing:-0.40000001px;text-anchor:start;fill:#20222b;fill-opacity:1"
         id="path5341" />
    </g>
    <rect
       style="opacity:1;fill:#b44ffb;fill-opacity:1;stroke:none;stroke-width:2.29999995;stroke-linecap:round;stroke-linejoin:round;stroke-miterlimit:4;stroke-dasharray:none;stroke-opacity:1"
       id="rect4932-6-5-4-3"
       width="16"
       height="14.142282"
       x="-968.36224"
       y="1404.8262"
       rx="2"
       ry="2.8284271"
       transform="matrix(1,0,0.70710678,0.70710678,0,0)" />
    <rect
       style="opacity:1;fill:#2ea2f6;fill-opacity:1;stroke:none;stroke-width:2.29999995;stroke-linecap:round;stroke-linejoin:round;stroke-miterlimit:4;stroke-dasharray:none;stroke-opacity:1"
       id="rect4932-6-5-6-8-2"
       width="16"
       height="14.142282"
       x="968.36224"
       y="-1441.5959"
       rx="2"
       ry="2.8284271"
       transform="matrix(-1,0,-0.70710678,-0.70710678,0,0)" />
    <rect
       style="opacity:1;fill:url(#linearGradient5164-9-6);fill-opacity:1;stroke:none;stroke-width:2.37841415;stroke-linecap:round;stroke-linejoin:round;stroke-miterlimit:4;stroke-dasharray:none;stroke-opacity:1"
       id="rect4909-0-1-8-0-6"
       width="10.000026"
       height="28.284302"
       x="966.36224"
       y="-1441.5957"
       rx="2"
       ry="2.8284271"
       transform="matrix(-1,0,-0.70710678,-0.70710678,0,0)" />
    <rect
       style="opacity:1;fill:url(#linearGradient5173-6-2);fill-opacity:1;stroke:none;stroke-width:2.37841415;stroke-linecap:round;stroke-linejoin:round;stroke-miterlimit:4;stroke-dasharray:none;stroke-opacity:1"
       id="rect4909-0-1-3-9"
       width="10.000026"
       height="28.284302"
       x="-970.36224"
       y="1404.8262"
       rx="2"
       ry="2.8284271"
       transform="matrix(1,0,0.70710678,0.70710678,0,0)" />
    <path
       style="opacity:1;fill:#056dbd;fill-opacity:1;stroke:none;stroke-width:2.37841415;stroke-linecap:round;stroke-linejoin:round;stroke-miterlimit:4;stroke-dasharray:none;stroke-opacity:1"
       d="m 29.000599,999.36215 12,12.00005 c 1.108,1.108 2.892,2 4,2 l 2,0 -12,-12.0001 c -1.108,-1.108 -2.892,-1.99995 -4,-1.99995 l -2,0 z"
       id="rect4909-0-1-8-0-5-54"
       inkscape:connector-curvature="0" />
  </g>
</svg>
